<svg xmlns="http://www.w3.org/2000/svg" viewBox="0 0 256 256">
	<style type="text/css">  
		.st0{fill:none;stroke:#000000;stroke-width:15;stroke-miterlimit:10;}
	</style>
	<ellipse transform="matrix(0.3394 -0.9406 0.9406 0.3394 -35.8455 204.9588)" class="st0" cx="128" cy="128" rx="90" ry="90"/><path class="st0" d="M150.2 191.7c-0.5-12.9-12-30.7-31.2-37.8 -19.2-7.1-40-1.3-48.8 8.2"/><path d="M97.8 125.1c6.2 0.1 12-2.3 16.4-6.6 4.4-4.3 6.9-10.1 6.9-16.2l-15.2-0.2c0 2.1-0.9 4.1-2.4 5.5 -1.5 1.5-3.5 2.3-5.6 2.2 -4.3-0.1-7.8-3.6-7.8-8L75 101.8C74.9 114.5 85.1 124.9 97.8 125.1z"/><path d="M152.9 145.2c4.7 3.9 10.7 5.8 16.9 5.2 6.1-0.6 11.7-3.5 15.6-8.3l-11.7-9.7c-1.3 1.6-3.2 2.6-5.3 2.8 -2.1 0.2-4.1-0.4-5.8-1.8 -3.3-2.8-3.8-7.7-1-11.1l-11.7-9.7C141.8 122.5 143.1 137.1 152.9 145.2z"/>
</svg>