<svg xmlns="http://www.w3.org/2000/svg" viewBox="0 0 1540 580"><style type="text/css">  
	.st0{fill:#191717;}
</style><path class="st0" d="M433.8 328.8c10.4-38.7 5-79.1-15-113.8 -20-34.7-52.3-59.5-91-69.8 -38.7-10.4-79.1-5-113.8 15s-59.5 52.4-69.8 91 -5 79.1 15 113.8c6.7 11.6 14.7 22.1 24 31.3 18.4 18.4 41.3 31.7 67.1 38.6 38.7 10.4 79.1 5 113.8-15C398.6 399.8 423.4 367.5 433.8 328.8zM352.6 400.1c-29.4 17-63.7 21.5-96.5 12.7 -32.8-8.8-60.2-29.8-77.2-59.3 -17-29.4-21.5-63.7-12.7-96.5 8.8-32.8 29.8-60.2 59.3-77.2 29.4-17 63.7-21.5 96.5-12.7 21.9 5.9 41.3 17.1 56.9 32.7 7.8 7.8 14.6 16.7 20.3 26.5 17 29.4 21.5 63.7 12.7 96.5C403 355.7 382 383.1 352.6 400.1zM217.2 325.8l11.4 19.7 54.2-31.3 13 22.5c6.5 11.3 17.1 19.4 29.7 22.8 4.2 1.1 8.5 1.7 12.7 1.7 8.5 0 16.8-2.2 24.3-6.6 11.3-6.5 19.4-17.1 22.8-29.7 3.4-12.6 1.6-25.8-4.9-37.1L356 245.7 217.2 325.8zM347.7 276.8l13 22.5c7.2 12.5 2.9 28.5-9.6 35.7 -12.5 7.2-28.5 2.9-35.7-9.6l-13-22.5L347.7 276.8zM319.8 217.2c4.8 8.3 2 19-6.4 23.8 -8.3 4.8-19 2-23.8-6.4 -4.8-8.3-2-19 6.4-23.8C304.3 206 314.9 208.9 319.8 217.2zM263.7 269L244 280.4c-3.3-5.6-10.5-7.6-16.1-4.3 -2.7 1.6-4.7 4.1-5.5 7.2 -0.8 3-0.4 6.2 1.2 9l-19.7 11.4c-4.6-8-5.8-17.3-3.5-26.2 2.4-8.9 8.1-16.4 16.1-21C233 246.8 254.1 252.5 263.7 269z"/><path class="st0" d="M643.3 232.1c13.6 15.6 20.6 35.6 20.6 59.7 0 23.8-7 43.8-21 59.7 -13.6 15.9-31.7 23.8-54 23.8 -25.1 0-43.8-10.5-53-25.4V440h-27.6V211.7h24.8l1.3 23.5c12.4-18.1 30.8-27 54.9-27C611.5 208.2 629.6 216.2 643.3 232.1zM550 249.5c-9.8 10.5-14.6 23.8-14.6 40.6v1.6c0 17.1 4.8 31.1 14.6 41.6 9.8 10.5 21.6 15.9 34.9 15.9 14.9 0 27-5.4 36.5-15.9 9.5-10.8 14.3-24.8 14.3-41.6 0-34.3-20-57.8-50.5-57.8C571.6 234 559.8 239 550 249.5zM958.3 237.5c-13 0-27.9 3.8-36.5 11.7 -9.5 8.6-14.3 21.3-14.6 37.8v84.8h-27.3v-160h24.4l1.9 27.9c6-16.5 26.7-29.5 52.1-29.5V237.5zM1012.9 140v146.7l60-74.9h33.3l-51.7 66.3 60 93.6H1083l-47.6-72.7 -22.5 27.3v45.4h-27.3V140H1012.9zM1218.9 222.2c9.8 9.2 14.9 21.6 15.2 36.5h-27.9c-0.3-16.8-8.6-25.1-25.4-25.1 -16.2 0-24.4 8.9-24.4 21.6 0 12.4 6.3 17.8 30.2 23.2 38.1 8.9 52.4 22.2 52.4 47.9 0 30.5-23.2 48.9-56.2 48.9 -36.5 0-57.5-20.3-58.4-52.1h27.9c0.3 17.8 10.8 26.7 31.1 26.7 17.8 0 27.6-8.9 27.6-21.6 0-13.6-7.6-19.7-33.3-25.7 -34.3-7.9-49.2-20.3-49.2-45.7 0-13.7 4.8-25.1 14-34.3 9.5-9.5 22.5-14.3 39-14.3C1197 208.2 1209.4 213 1218.9 222.2zM1370.6 211.7l-42.2 114.9 -3.2 12.1 -3.2-12.1 -42.2-114.9h-29.2l60.5 159.1 -3.8 10.1c-7.1 18.8-21.9 31.4-45.5 31.4h-11.1V440h11.1c36.2 0 60.2-19.8 71.4-49.3l67.8-179H1370.6zM836.6 250.3l6.5 11.3 -114 65.8c16.5 24.2 46.1 28 70 14.2 17-9.8 29.4-28 27.9-46.1l23.6-13.6c6.1 32.4-9.5 64.8-39.4 82.1 -19.5 11.3-41.3 15-61.3 9S711 354.7 698.5 333c-12.2-21.2-13.6-43.5-9-64.1 4.4-20.9 19.8-38.9 38.2-49.6C762.4 199.3 810.4 205 836.6 250.3zM717.1 306.1l88.9-51.4c-13.8-23.2-43.8-26.1-65.6-13.4C718.6 253.9 707 281.5 717.1 306.1z"/></svg>